<mxfile host="drawio-plugin" modified="2022-01-07T10:28:54.801Z" agent="5.0 (Macintosh; Intel Mac OS X 10_14_6) AppleWebKit/537.36 (KHTML, like Gecko) Chrome/89.0.4389.114 Safari/537.36" etag="pG5hlVlaw93CE_y9JOYt" version="15.5.4" type="embed" pages="4"><diagram name="1. connexion" id="2cc2dc42-3aac-f2a9-1cec-7a8b7cbee084"><mxGraphModel dx="897" dy="794" grid="1" gridSize="10" guides="1" tooltips="1" connect="1" arrows="1" fold="1" page="1" pageScale="1" pageWidth="1100" pageHeight="850" background="none" math="0" shadow="0"><root><mxCell id="0"/><mxCell id="1" parent="0"/><mxCell id="15" value="1. connexion" style="strokeWidth=1;shadow=0;dashed=0;align=center;html=1;shape=mxgraph.mockup.containers.window;align=left;verticalAlign=top;spacingLeft=8;strokeColor2=#008cff;strokeColor3=#c4c4c4;fontColor=#666666;mainText=;fontSize=17;labelBackgroundColor=none;" vertex="1" parent="1"><mxGeometry x="29" y="40" width="1042.11" height="720" as="geometry"/></mxCell><mxCell id="16" value="Authentification" style="strokeWidth=1;shadow=0;dashed=0;align=center;html=1;shape=mxgraph.mockup.forms.anchor;fontSize=12;fontColor=#666666;align=left;resizeWidth=1;spacingLeft=0;" vertex="1" parent="1"><mxGeometry x="406.05" y="130" width="160" height="20" as="geometry"/></mxCell><mxCell id="17" value="" style="shape=line;strokeColor=#ddeeff;strokeWidth=2;html=1;resizeWidth=1;" vertex="1" parent="1"><mxGeometry x="406.05" y="154" width="287.99999999999994" height="10" as="geometry"/></mxCell><mxCell id="18" value="Email :" style="strokeWidth=1;shadow=0;dashed=0;align=center;html=1;shape=mxgraph.mockup.forms.anchor;fontSize=12;fontColor=#666666;align=left;resizeWidth=1;spacingLeft=0;" vertex="1" parent="1"><mxGeometry x="406.05" y="177" width="160" height="20" as="geometry"/></mxCell><mxCell id="19" value="utilisateur@email.com" style="strokeWidth=1;shadow=0;dashed=0;align=center;html=1;shape=mxgraph.mockup.forms.rrect;rSize=0;strokeColor=#999999;fontColor=#666666;align=left;spacingLeft=5;resizeWidth=1;" vertex="1" parent="1"><mxGeometry x="406.05" y="197" width="240" height="25" as="geometry"/></mxCell><mxCell id="20" value="Mot de passe :" style="strokeWidth=1;shadow=0;dashed=0;align=center;html=1;shape=mxgraph.mockup.forms.anchor;fontSize=12;fontColor=#666666;align=left;resizeWidth=1;spacingLeft=0;" vertex="1" parent="1"><mxGeometry x="406.05" y="232" width="160" height="20" as="geometry"/></mxCell><mxCell id="21" value="********" style="strokeWidth=1;shadow=0;dashed=0;align=center;html=1;shape=mxgraph.mockup.forms.rrect;rSize=0;strokeColor=#999999;fontColor=#666666;align=left;spacingLeft=5;resizeWidth=1;" vertex="1" parent="1"><mxGeometry x="406.05" y="252" width="240" height="25" as="geometry"/></mxCell><mxCell id="22" value="Se Connecter" style="strokeWidth=1;shadow=0;dashed=0;align=center;html=1;shape=mxgraph.mockup.forms.rrect;rSize=5;strokeColor=none;fontColor=#ffffff;fillColor=#66bbff;fontSize=16;fontStyle=1;" vertex="1" parent="1"><mxGeometry x="406.05" y="300" width="150" height="30" as="geometry"/></mxCell><mxCell id="23" value="Mot de passe oublié ?" style="strokeWidth=1;shadow=0;dashed=0;align=center;html=1;shape=mxgraph.mockup.forms.anchor;fontSize=12;fontColor=#9999ff;align=left;spacingLeft=0;fontStyle=4;resizeWidth=1;" vertex="1" parent="1"><mxGeometry x="416.05" y="405" width="240" height="20" as="geometry"/></mxCell><mxCell id="24" value="" style="shape=line;strokeColor=#ddeeff;strokeWidth=2;html=1;resizeWidth=1;" vertex="1" parent="1"><mxGeometry x="406.05" y="430" width="287.99999999999994" height="10" as="geometry"/></mxCell><mxCell id="25" value="Nouvel utilisateur" style="strokeWidth=1;shadow=0;dashed=0;align=center;html=1;shape=mxgraph.mockup.forms.anchor;fontSize=12;fontColor=#666666;align=left;spacingLeft=0;resizeWidth=1;" vertex="1" parent="1"><mxGeometry x="406.05" y="510" width="240" height="20" as="geometry"/></mxCell><mxCell id="26" value="Créer un compte" style="strokeWidth=1;shadow=0;dashed=0;align=center;html=1;shape=mxgraph.mockup.forms.rrect;rSize=5;strokeColor=none;fontColor=#ffffff;fillColor=#66bbff;fontSize=16;fontStyle=1;" vertex="1" parent="1"><mxGeometry x="406" y="550" width="150" height="30" as="geometry"/></mxCell><mxCell id="9K-57Y8DtEjR14jrUzWZ-26" value="" style="shape=line;strokeColor=#ddeeff;strokeWidth=2;html=1;resizeWidth=1;" vertex="1" parent="1"><mxGeometry x="406" y="530" width="287.99999999999994" height="10" as="geometry"/></mxCell></root></mxGraphModel></diagram><diagram name="1.1 connexion mot de passe oublié" id="4iPZAgOdz_aABJl1WM38"><mxGraphModel dx="897" dy="794" grid="1" gridSize="10" guides="1" tooltips="1" connect="1" arrows="1" fold="1" page="1" pageScale="1" pageWidth="1100" pageHeight="850" background="none" math="0" shadow="0"><root><mxCell id="VU6T0Y7Y-3jl6aKl-pnd-0"/><mxCell id="VU6T0Y7Y-3jl6aKl-pnd-1" parent="VU6T0Y7Y-3jl6aKl-pnd-0"/><mxCell id="VU6T0Y7Y-3jl6aKl-pnd-2" value="1.1 connexion mot de passe oublié" style="strokeWidth=1;shadow=0;dashed=0;align=center;html=1;shape=mxgraph.mockup.containers.window;align=left;verticalAlign=top;spacingLeft=8;strokeColor2=#008cff;strokeColor3=#c4c4c4;fontColor=#666666;mainText=;fontSize=17;labelBackgroundColor=none;" vertex="1" parent="VU6T0Y7Y-3jl6aKl-pnd-1"><mxGeometry x="29" y="40" width="1042.11" height="720" as="geometry"/></mxCell><mxCell id="VU6T0Y7Y-3jl6aKl-pnd-3" value="Réinitialisation de votre mot passe" style="strokeWidth=1;shadow=0;dashed=0;align=center;html=1;shape=mxgraph.mockup.forms.anchor;fontSize=12;fontColor=#666666;align=left;resizeWidth=1;spacingLeft=0;" vertex="1" parent="VU6T0Y7Y-3jl6aKl-pnd-1"><mxGeometry x="406.05" y="130" width="160" height="20" as="geometry"/></mxCell><mxCell id="VU6T0Y7Y-3jl6aKl-pnd-4" value="" style="shape=line;strokeColor=#ddeeff;strokeWidth=2;html=1;resizeWidth=1;" vertex="1" parent="VU6T0Y7Y-3jl6aKl-pnd-1"><mxGeometry x="406.05" y="154" width="287.99999999999994" height="10" as="geometry"/></mxCell><mxCell id="VU6T0Y7Y-3jl6aKl-pnd-5" value="Email :" style="strokeWidth=1;shadow=0;dashed=0;align=center;html=1;shape=mxgraph.mockup.forms.anchor;fontSize=12;fontColor=#666666;align=left;resizeWidth=1;spacingLeft=0;" vertex="1" parent="VU6T0Y7Y-3jl6aKl-pnd-1"><mxGeometry x="406.05" y="177" width="160" height="20" as="geometry"/></mxCell><mxCell id="VU6T0Y7Y-3jl6aKl-pnd-6" value="utilisateur@email.com" style="strokeWidth=1;shadow=0;dashed=0;align=center;html=1;shape=mxgraph.mockup.forms.rrect;rSize=0;strokeColor=#999999;fontColor=#666666;align=left;spacingLeft=5;resizeWidth=1;" vertex="1" parent="VU6T0Y7Y-3jl6aKl-pnd-1"><mxGeometry x="406.05" y="197" width="240" height="25" as="geometry"/></mxCell><mxCell id="VU6T0Y7Y-3jl6aKl-pnd-7" value="Nouveau mot de passe :" style="strokeWidth=1;shadow=0;dashed=0;align=center;html=1;shape=mxgraph.mockup.forms.anchor;fontSize=12;fontColor=#666666;align=left;resizeWidth=1;spacingLeft=0;" vertex="1" parent="VU6T0Y7Y-3jl6aKl-pnd-1"><mxGeometry x="406.05" y="232" width="160" height="20" as="geometry"/></mxCell><mxCell id="VU6T0Y7Y-3jl6aKl-pnd-8" value="********" style="strokeWidth=1;shadow=0;dashed=0;align=center;html=1;shape=mxgraph.mockup.forms.rrect;rSize=0;strokeColor=#999999;fontColor=#666666;align=left;spacingLeft=5;resizeWidth=1;" vertex="1" parent="VU6T0Y7Y-3jl6aKl-pnd-1"><mxGeometry x="406.05" y="252" width="240" height="25" as="geometry"/></mxCell><mxCell id="VU6T0Y7Y-3jl6aKl-pnd-9" value="Réinitialiser mot de passe" style="strokeWidth=1;shadow=0;dashed=0;align=center;html=1;shape=mxgraph.mockup.forms.rrect;rSize=5;strokeColor=none;fontColor=#ffffff;fillColor=#66bbff;fontSize=16;fontStyle=1;" vertex="1" parent="VU6T0Y7Y-3jl6aKl-pnd-1"><mxGeometry x="406.05" y="360" width="243.95" height="30" as="geometry"/></mxCell><mxCell id="VU6T0Y7Y-3jl6aKl-pnd-14" value="********" style="strokeWidth=1;shadow=0;dashed=0;align=center;html=1;shape=mxgraph.mockup.forms.rrect;rSize=0;strokeColor=#999999;fontColor=#666666;align=left;spacingLeft=5;resizeWidth=1;" vertex="1" parent="VU6T0Y7Y-3jl6aKl-pnd-1"><mxGeometry x="406.05" y="310" width="240" height="25" as="geometry"/></mxCell><mxCell id="VU6T0Y7Y-3jl6aKl-pnd-15" value="Confirmez nouveau mot de passe :" style="strokeWidth=1;shadow=0;dashed=0;align=center;html=1;shape=mxgraph.mockup.forms.anchor;fontSize=12;fontColor=#666666;align=left;resizeWidth=1;spacingLeft=0;" vertex="1" parent="VU6T0Y7Y-3jl6aKl-pnd-1"><mxGeometry x="406.05" y="290" width="160" height="20" as="geometry"/></mxCell><mxCell id="3Y9_Q63Ky_Ix7ewtDBC7-0" value="Nouvel utilisateur" style="strokeWidth=1;shadow=0;dashed=0;align=center;html=1;shape=mxgraph.mockup.forms.anchor;fontSize=12;fontColor=#666666;align=left;spacingLeft=0;resizeWidth=1;" vertex="1" parent="VU6T0Y7Y-3jl6aKl-pnd-1"><mxGeometry x="406.05" y="510" width="240" height="20" as="geometry"/></mxCell><mxCell id="3Y9_Q63Ky_Ix7ewtDBC7-1" value="Créer un compte" style="strokeWidth=1;shadow=0;dashed=0;align=center;html=1;shape=mxgraph.mockup.forms.rrect;rSize=5;strokeColor=none;fontColor=#ffffff;fillColor=#66bbff;fontSize=16;fontStyle=1;" vertex="1" parent="VU6T0Y7Y-3jl6aKl-pnd-1"><mxGeometry x="406" y="550" width="150" height="30" as="geometry"/></mxCell><mxCell id="3Y9_Q63Ky_Ix7ewtDBC7-2" value="" style="shape=line;strokeColor=#ddeeff;strokeWidth=2;html=1;resizeWidth=1;" vertex="1" parent="VU6T0Y7Y-3jl6aKl-pnd-1"><mxGeometry x="406" y="530" width="287.99999999999994" height="10" as="geometry"/></mxCell></root></mxGraphModel></diagram><diagram name="1.2 connexion création de compte" id="8xFSvD0aIxnqieJJlEq7"><mxGraphModel dx="1553" dy="794" grid="1" gridSize="10" guides="1" tooltips="1" connect="1" arrows="1" fold="1" page="1" pageScale="1" pageWidth="1100" pageHeight="850" background="none" math="0" shadow="0"><root><mxCell id="4bkz7fjgMvuUST8J8lVn-0"/><mxCell id="4bkz7fjgMvuUST8J8lVn-1" parent="4bkz7fjgMvuUST8J8lVn-0"/><mxCell id="4bkz7fjgMvuUST8J8lVn-2" value="1.2 connexion création de compte" style="strokeWidth=1;shadow=0;dashed=0;align=center;html=1;shape=mxgraph.mockup.containers.window;align=left;verticalAlign=top;spacingLeft=8;strokeColor2=#008cff;strokeColor3=#c4c4c4;fontColor=#666666;mainText=;fontSize=17;labelBackgroundColor=none;" vertex="1" parent="4bkz7fjgMvuUST8J8lVn-1"><mxGeometry x="29" y="40" width="1042.11" height="720" as="geometry"/></mxCell><mxCell id="4bkz7fjgMvuUST8J8lVn-3" value="Création d'un nouveau compte utilisateur" style="strokeWidth=1;shadow=0;dashed=0;align=center;html=1;shape=mxgraph.mockup.forms.anchor;fontSize=12;fontColor=#666666;align=left;resizeWidth=1;spacingLeft=0;" vertex="1" parent="4bkz7fjgMvuUST8J8lVn-1"><mxGeometry x="406.05" y="130" width="160" height="20" as="geometry"/></mxCell><mxCell id="4bkz7fjgMvuUST8J8lVn-4" value="" style="shape=line;strokeColor=#ddeeff;strokeWidth=2;html=1;resizeWidth=1;" vertex="1" parent="4bkz7fjgMvuUST8J8lVn-1"><mxGeometry x="406.05" y="154" width="287.99999999999994" height="10" as="geometry"/></mxCell><mxCell id="4bkz7fjgMvuUST8J8lVn-5" value="Email :" style="strokeWidth=1;shadow=0;dashed=0;align=center;html=1;shape=mxgraph.mockup.forms.anchor;fontSize=12;fontColor=#666666;align=left;resizeWidth=1;spacingLeft=0;" vertex="1" parent="4bkz7fjgMvuUST8J8lVn-1"><mxGeometry x="406.05" y="177" width="160" height="20" as="geometry"/></mxCell><mxCell id="4bkz7fjgMvuUST8J8lVn-6" value="utilisateur@email.com" style="strokeWidth=1;shadow=0;dashed=0;align=center;html=1;shape=mxgraph.mockup.forms.rrect;rSize=0;strokeColor=#999999;fontColor=#666666;align=left;spacingLeft=5;resizeWidth=1;" vertex="1" parent="4bkz7fjgMvuUST8J8lVn-1"><mxGeometry x="406.05" y="197" width="240" height="25" as="geometry"/></mxCell><mxCell id="4bkz7fjgMvuUST8J8lVn-7" value="Nom :" style="strokeWidth=1;shadow=0;dashed=0;align=center;html=1;shape=mxgraph.mockup.forms.anchor;fontSize=12;fontColor=#666666;align=left;resizeWidth=1;spacingLeft=0;" vertex="1" parent="4bkz7fjgMvuUST8J8lVn-1"><mxGeometry x="406.05" y="232" width="160" height="20" as="geometry"/></mxCell><mxCell id="4bkz7fjgMvuUST8J8lVn-8" value="Nom_Utilisateur" style="strokeWidth=1;shadow=0;dashed=0;align=center;html=1;shape=mxgraph.mockup.forms.rrect;rSize=0;strokeColor=#999999;fontColor=#666666;align=left;spacingLeft=5;resizeWidth=1;" vertex="1" parent="4bkz7fjgMvuUST8J8lVn-1"><mxGeometry x="406.05" y="252" width="240" height="25" as="geometry"/></mxCell><mxCell id="4bkz7fjgMvuUST8J8lVn-10" value="Prénom_Utilisateur" style="strokeWidth=1;shadow=0;dashed=0;align=center;html=1;shape=mxgraph.mockup.forms.rrect;rSize=0;strokeColor=#999999;fontColor=#666666;align=left;spacingLeft=5;resizeWidth=1;" vertex="1" parent="4bkz7fjgMvuUST8J8lVn-1"><mxGeometry x="406.05" y="310" width="240" height="25" as="geometry"/></mxCell><mxCell id="4bkz7fjgMvuUST8J8lVn-11" value="Prénom :" style="strokeWidth=1;shadow=0;dashed=0;align=center;html=1;shape=mxgraph.mockup.forms.anchor;fontSize=12;fontColor=#666666;align=left;resizeWidth=1;spacingLeft=0;" vertex="1" parent="4bkz7fjgMvuUST8J8lVn-1"><mxGeometry x="406.05" y="290" width="160" height="20" as="geometry"/></mxCell><mxCell id="4bkz7fjgMvuUST8J8lVn-13" value="Créer un compte" style="strokeWidth=1;shadow=0;dashed=0;align=center;html=1;shape=mxgraph.mockup.forms.rrect;rSize=5;strokeColor=none;fontColor=#ffffff;fillColor=#66bbff;fontSize=16;fontStyle=1;" vertex="1" parent="4bkz7fjgMvuUST8J8lVn-1"><mxGeometry x="406.05" y="570" width="150" height="30" as="geometry"/></mxCell><mxCell id="4bkz7fjgMvuUST8J8lVn-15" value="********" style="strokeWidth=1;shadow=0;dashed=0;align=center;html=1;shape=mxgraph.mockup.forms.rrect;rSize=0;strokeColor=#999999;fontColor=#666666;align=left;spacingLeft=5;resizeWidth=1;" vertex="1" parent="4bkz7fjgMvuUST8J8lVn-1"><mxGeometry x="406.05" y="426.5" width="240" height="25" as="geometry"/></mxCell><mxCell id="4bkz7fjgMvuUST8J8lVn-16" value="Confirmez mot de passe :" style="strokeWidth=1;shadow=0;dashed=0;align=center;html=1;shape=mxgraph.mockup.forms.anchor;fontSize=12;fontColor=#666666;align=left;resizeWidth=1;spacingLeft=0;" vertex="1" parent="4bkz7fjgMvuUST8J8lVn-1"><mxGeometry x="406.05" y="406.5" width="160" height="20" as="geometry"/></mxCell><mxCell id="4bkz7fjgMvuUST8J8lVn-17" value="********" style="strokeWidth=1;shadow=0;dashed=0;align=center;html=1;shape=mxgraph.mockup.forms.rrect;rSize=0;strokeColor=#999999;fontColor=#666666;align=left;spacingLeft=5;resizeWidth=1;" vertex="1" parent="4bkz7fjgMvuUST8J8lVn-1"><mxGeometry x="406.05" y="368.5" width="240" height="25" as="geometry"/></mxCell><mxCell id="4bkz7fjgMvuUST8J8lVn-18" value="Mot de passe :" style="strokeWidth=1;shadow=0;dashed=0;align=center;html=1;shape=mxgraph.mockup.forms.anchor;fontSize=12;fontColor=#666666;align=left;resizeWidth=1;spacingLeft=0;" vertex="1" parent="4bkz7fjgMvuUST8J8lVn-1"><mxGeometry x="406.05" y="348.5" width="160" height="20" as="geometry"/></mxCell><mxCell id="deZI9XHjXmOvTDK64Z3D-6" value="Élève" style="shape=ellipse;rSize=0;fillColor=#eeeeee;strokeColor=#999999;gradientColor=#cccccc;html=1;align=left;spacingLeft=4;fontSize=17;fontColor=#666666;labelPosition=right;" vertex="1" parent="4bkz7fjgMvuUST8J8lVn-1"><mxGeometry x="414.05" y="487.5" width="15" height="15" as="geometry"/></mxCell><mxCell id="deZI9XHjXmOvTDK64Z3D-7" value="Tuteur" style="shape=ellipse;rSize=0;fillColor=#eeeeee;strokeColor=#999999;gradientColor=#cccccc;html=1;align=left;spacingLeft=4;fontSize=17;fontColor=#666666;labelPosition=right;" vertex="1" parent="4bkz7fjgMvuUST8J8lVn-1"><mxGeometry x="414.05" y="517.5" width="15" height="15" as="geometry"/></mxCell></root></mxGraphModel></diagram><diagram name="2. tableau de bord" id="iXh7SlRufSBfUGD5yu6K"><mxGraphModel dx="1553" dy="794" grid="1" gridSize="10" guides="1" tooltips="1" connect="1" arrows="1" fold="1" page="1" pageScale="1" pageWidth="1100" pageHeight="850" background="none" math="0" shadow="0"><root><mxCell id="nj5yZ6E_mY4URYtarcAv-0"/><mxCell id="nj5yZ6E_mY4URYtarcAv-1" parent="nj5yZ6E_mY4URYtarcAv-0"/><mxCell id="nj5yZ6E_mY4URYtarcAv-2" value="2. tableau de bord" style="strokeWidth=1;shadow=0;dashed=0;align=center;html=1;shape=mxgraph.mockup.containers.window;align=left;verticalAlign=top;spacingLeft=8;strokeColor2=#008cff;strokeColor3=#c4c4c4;fontColor=#666666;mainText=;fontSize=17;labelBackgroundColor=none;" vertex="1" parent="nj5yZ6E_mY4URYtarcAv-1"><mxGeometry x="29" y="40" width="1042.11" height="720" as="geometry"/></mxCell><mxCell id="nj5yZ6E_mY4URYtarcAv-28" value="" style="strokeWidth=1;shadow=0;dashed=0;align=center;html=1;shape=mxgraph.mockup.forms.rrect;rSize=0;strokeColor=#999999;fillColor=#ffffff;" vertex="1" parent="nj5yZ6E_mY4URYtarcAv-1"><mxGeometry x="151" y="220" width="318.75" height="405" as="geometry"/></mxCell><mxCell id="nj5yZ6E_mY4URYtarcAv-29" value="Récapitulatif des tâches" style="strokeWidth=1;shadow=0;dashed=0;align=center;html=1;shape=mxgraph.mockup.forms.rrect;rSize=0;strokeColor=#999999;fontColor=#008cff;fontSize=17;fillColor=#ffffff;resizeWidth=1;" vertex="1" parent="nj5yZ6E_mY4URYtarcAv-28"><mxGeometry width="318.75" height="30" relative="1" as="geometry"/></mxCell><mxCell id="nj5yZ6E_mY4URYtarcAv-30" value="- tâche n°1" style="strokeWidth=1;shadow=0;dashed=0;align=center;html=1;shape=mxgraph.mockup.forms.anchor;fontSize=17;fontColor=#666666;align=left;spacingLeft=5;resizeWidth=1;" vertex="1" parent="nj5yZ6E_mY4URYtarcAv-28"><mxGeometry width="318.75" height="20" relative="1" as="geometry"><mxPoint y="30" as="offset"/></mxGeometry></mxCell><mxCell id="nj5yZ6E_mY4URYtarcAv-35" value="- tâche n°2" style="strokeWidth=1;shadow=0;dashed=0;align=center;html=1;shape=mxgraph.mockup.forms.anchor;fontSize=17;fontColor=#666666;align=left;spacingLeft=5;resizeWidth=1;" vertex="1" parent="nj5yZ6E_mY4URYtarcAv-28"><mxGeometry y="48.6" width="318.75" height="19.058823529411764" as="geometry"/></mxCell><mxCell id="nj5yZ6E_mY4URYtarcAv-36" value="- tâche n°3" style="strokeWidth=1;shadow=0;dashed=0;align=center;html=1;shape=mxgraph.mockup.forms.anchor;fontSize=17;fontColor=#666666;align=left;spacingLeft=5;resizeWidth=1;" vertex="1" parent="nj5yZ6E_mY4URYtarcAv-28"><mxGeometry y="69.56470588235294" width="318.75" height="19.058823529411764" as="geometry"/></mxCell><mxCell id="nj5yZ6E_mY4URYtarcAv-37" value="- tâche n°4" style="strokeWidth=1;shadow=0;dashed=0;align=center;html=1;shape=mxgraph.mockup.forms.anchor;fontSize=17;fontColor=#666666;align=left;spacingLeft=5;resizeWidth=1;" vertex="1" parent="nj5yZ6E_mY4URYtarcAv-28"><mxGeometry y="90.52941176470588" width="318.75" height="19.058823529411764" as="geometry"/></mxCell><mxCell id="nj5yZ6E_mY4URYtarcAv-38" value="Gestionnaire de tâches" style="strokeWidth=1;shadow=0;dashed=0;align=center;html=1;shape=mxgraph.mockup.buttons.button;strokeColor=#666666;fontColor=#ffffff;mainText=;buttonStyle=round;fontSize=17;fontStyle=1;fillColor=#008cff;whiteSpace=wrap;" vertex="1" parent="nj5yZ6E_mY4URYtarcAv-1"><mxGeometry x="192.56" y="650" width="235.62" height="50" as="geometry"/></mxCell><mxCell id="nj5yZ6E_mY4URYtarcAv-39" value="" style="strokeWidth=1;shadow=0;dashed=0;align=center;html=1;shape=mxgraph.mockup.forms.rrect;rSize=0;strokeColor=#999999;fillColor=#ffffff;" vertex="1" parent="nj5yZ6E_mY4URYtarcAv-1"><mxGeometry x="631" y="220" width="318.75" height="405" as="geometry"/></mxCell><mxCell id="nj5yZ6E_mY4URYtarcAv-40" value="Liste des évènements prochains" style="strokeWidth=1;shadow=0;dashed=0;align=center;html=1;shape=mxgraph.mockup.forms.rrect;rSize=0;strokeColor=#999999;fontColor=#008cff;fontSize=17;fillColor=#ffffff;resizeWidth=1;" vertex="1" parent="nj5yZ6E_mY4URYtarcAv-39"><mxGeometry width="318.75" height="30" relative="1" as="geometry"/></mxCell><mxCell id="nj5yZ6E_mY4URYtarcAv-41" value="- date n°1 : évènement n°1" style="strokeWidth=1;shadow=0;dashed=0;align=center;html=1;shape=mxgraph.mockup.forms.anchor;fontSize=17;fontColor=#666666;align=left;spacingLeft=5;resizeWidth=1;" vertex="1" parent="nj5yZ6E_mY4URYtarcAv-39"><mxGeometry width="318.75" height="20" relative="1" as="geometry"><mxPoint y="30" as="offset"/></mxGeometry></mxCell><mxCell id="nj5yZ6E_mY4URYtarcAv-42" value="- date n°2 : évènement n°2" style="strokeWidth=1;shadow=0;dashed=0;align=center;html=1;shape=mxgraph.mockup.forms.anchor;fontSize=17;fontColor=#666666;align=left;spacingLeft=5;resizeWidth=1;" vertex="1" parent="nj5yZ6E_mY4URYtarcAv-39"><mxGeometry y="48.6" width="318.75" height="19.058823529411764" as="geometry"/></mxCell><mxCell id="nj5yZ6E_mY4URYtarcAv-43" value="- date n°3 : évènement n°3" style="strokeWidth=1;shadow=0;dashed=0;align=center;html=1;shape=mxgraph.mockup.forms.anchor;fontSize=17;fontColor=#666666;align=left;spacingLeft=5;resizeWidth=1;" vertex="1" parent="nj5yZ6E_mY4URYtarcAv-39"><mxGeometry y="69.56470588235294" width="318.75" height="19.058823529411764" as="geometry"/></mxCell><mxCell id="nj5yZ6E_mY4URYtarcAv-44" value="- date n°4 : évènement n°4" style="strokeWidth=1;shadow=0;dashed=0;align=center;html=1;shape=mxgraph.mockup.forms.anchor;fontSize=17;fontColor=#666666;align=left;spacingLeft=5;resizeWidth=1;" vertex="1" parent="nj5yZ6E_mY4URYtarcAv-39"><mxGeometry y="90.52941176470588" width="318.75" height="19.058823529411764" as="geometry"/></mxCell><mxCell id="nj5yZ6E_mY4URYtarcAv-45" value="Calendrier" style="strokeWidth=1;shadow=0;dashed=0;align=center;html=1;shape=mxgraph.mockup.buttons.button;strokeColor=#666666;fontColor=#ffffff;mainText=;buttonStyle=round;fontSize=17;fontStyle=1;fillColor=#008cff;whiteSpace=wrap;" vertex="1" parent="nj5yZ6E_mY4URYtarcAv-1"><mxGeometry x="672.56" y="650" width="235.62" height="50" as="geometry"/></mxCell><mxCell id="nj5yZ6E_mY4URYtarcAv-46" value="Chat" style="strokeWidth=1;shadow=0;dashed=0;align=center;html=1;shape=mxgraph.mockup.buttons.button;strokeColor=#666666;fontColor=#ffffff;mainText=;buttonStyle=round;fontSize=17;fontStyle=1;fillColor=#008cff;whiteSpace=wrap;" vertex="1" parent="nj5yZ6E_mY4URYtarcAv-1"><mxGeometry x="808.38" y="130" width="141.37" height="30" as="geometry"/></mxCell><mxCell id="nj5yZ6E_mY4URYtarcAv-47" value="Nombre de Messages non lus : X" style="strokeWidth=1;shadow=0;dashed=0;align=center;html=1;shape=mxgraph.mockup.text.textBox;fontColor=#666666;align=left;fontSize=17;spacingLeft=4;spacingTop=-3;strokeColor=#666666;mainText=" vertex="1" parent="nj5yZ6E_mY4URYtarcAv-1"><mxGeometry x="468.38" y="130" width="320" height="30" as="geometry"/></mxCell></root></mxGraphModel></diagram></mxfile>